<svg width="22" height="22" viewBox="0 0 22 22" fill="none" xmlns="http://www.w3.org/2000/svg">
<path d="M2.2002 3.84995C2.2002 3.41234 2.37403 2.99266 2.68347 2.68323C2.9929 2.37379 3.41259 2.19995 3.8502 2.19995H4.9502C5.3878 2.19995 5.80749 2.37379 6.11692 2.68323C6.42636 2.99266 6.6002 3.41234 6.6002 3.84995V4.94995C6.6002 5.38756 6.42636 5.80724 6.11692 6.11668C5.80749 6.42611 5.3878 6.59995 4.9502 6.59995H3.8502C3.41259 6.59995 2.9929 6.42611 2.68347 6.11668C2.37403 5.80724 2.2002 5.38756 2.2002 4.94995V3.84995ZM3.8502 3.29995C3.70433 3.29995 3.56443 3.3579 3.46129 3.46104C3.35814 3.56419 3.3002 3.70408 3.3002 3.84995V4.94995C3.3002 5.09582 3.35814 5.23571 3.46129 5.33886C3.56443 5.442 3.70433 5.49995 3.8502 5.49995H4.9502C5.09606 5.49995 5.23596 5.442 5.3391 5.33886C5.44225 5.23571 5.5002 5.09582 5.5002 4.94995V3.84995C5.5002 3.70408 5.44225 3.56419 5.3391 3.46104C5.23596 3.3579 5.09606 3.29995 4.9502 3.29995H3.8502ZM2.2002 10.45C2.2002 10.0123 2.37403 9.59266 2.68347 9.28323C2.9929 8.97379 3.41259 8.79995 3.8502 8.79995H4.9502C5.3878 8.79995 5.80749 8.97379 6.11692 9.28323C6.42636 9.59266 6.6002 10.0123 6.6002 10.45V11.55C6.6002 11.9876 6.42636 12.4072 6.11692 12.7167C5.80749 13.0261 5.3878 13.2 4.9502 13.2H3.8502C3.41259 13.2 2.9929 13.0261 2.68347 12.7167C2.37403 12.4072 2.2002 11.9876 2.2002 11.55V10.45ZM3.8502 9.89995C3.70433 9.89995 3.56443 9.9579 3.46129 10.061C3.35814 10.1642 3.3002 10.3041 3.3002 10.45V11.55C3.3002 11.6958 3.35814 11.8357 3.46129 11.9389C3.56443 12.042 3.70433 12.1 3.8502 12.1H4.9502C5.09606 12.1 5.23596 12.042 5.3391 11.9389C5.44225 11.8357 5.5002 11.6958 5.5002 11.55V10.45C5.5002 10.3041 5.44225 10.1642 5.3391 10.061C5.23596 9.9579 5.09606 9.89995 4.9502 9.89995H3.8502ZM2.2002 17.05C2.2002 16.6123 2.37403 16.1927 2.68347 15.8832C2.9929 15.5738 3.41259 15.4 3.8502 15.4H4.9502C5.3878 15.4 5.80749 15.5738 6.11692 15.8832C6.42636 16.1927 6.6002 16.6123 6.6002 17.05V18.15C6.6002 18.5876 6.42636 19.0072 6.11692 19.3167C5.80749 19.6261 5.3878 19.8 4.9502 19.8H3.8502C3.41259 19.8 2.9929 19.6261 2.68347 19.3167C2.37403 19.0072 2.2002 18.5876 2.2002 18.15V17.05ZM3.8502 16.5C3.70433 16.5 3.56443 16.5579 3.46129 16.661C3.35814 16.7642 3.3002 16.9041 3.3002 17.05V18.15C3.3002 18.2958 3.35814 18.4357 3.46129 18.5389C3.56443 18.642 3.70433 18.7 3.8502 18.7H4.9502C5.09606 18.7 5.23596 18.642 5.3391 18.5389C5.44225 18.4357 5.5002 18.2958 5.5002 18.15V17.05C5.5002 16.9041 5.44225 16.7642 5.3391 16.661C5.23596 16.5579 5.09606 16.5 4.9502 16.5H3.8502ZM8.8002 4.94995C8.8002 4.80408 8.85814 4.66419 8.96129 4.56104C9.06443 4.4579 9.20433 4.39995 9.3502 4.39995H19.2502C19.3961 4.39995 19.536 4.4579 19.6391 4.56104C19.7423 4.66419 19.8002 4.80408 19.8002 4.94995C19.8002 5.09582 19.7423 5.23571 19.6391 5.33886C19.536 5.442 19.3961 5.49995 19.2502 5.49995H9.3502C9.20433 5.49995 9.06443 5.442 8.96129 5.33886C8.85814 5.23571 8.8002 5.09582 8.8002 4.94995ZM8.8002 11.55C8.8002 11.4041 8.85814 11.2642 8.96129 11.161C9.06443 11.0579 9.20433 11 9.3502 11H19.2502C19.3961 11 19.536 11.0579 19.6391 11.161C19.7423 11.2642 19.8002 11.4041 19.8002 11.55C19.8002 11.6958 19.7423 11.8357 19.6391 11.9389C19.536 12.042 19.3961 12.1 19.2502 12.1H9.3502C9.20433 12.1 9.06443 12.042 8.96129 11.9389C8.85814 11.8357 8.8002 11.6958 8.8002 11.55ZM8.8002 18.15C8.8002 18.0041 8.85814 17.8642 8.96129 17.761C9.06443 17.6579 9.20433 17.6 9.3502 17.6H19.2502C19.3961 17.6 19.536 17.6579 19.6391 17.761C19.7423 17.8642 19.8002 18.0041 19.8002 18.15C19.8002 18.2958 19.7423 18.4357 19.6391 18.5389C19.536 18.642 19.3961 18.7 19.2502 18.7H9.3502C9.20433 18.7 9.06443 18.642 8.96129 18.5389C8.85814 18.4357 8.8002 18.2958 8.8002 18.15Z" fill="#ECC16E"/>
</svg>
